<svg width="586" height="147" viewBox="0 0 586 147" fill="none" xmlns="http://www.w3.org/2000/svg">
<mask id="path-1-outside-1_8_3" maskUnits="userSpaceOnUse" x="0.735992" y="0.191895" width="585" height="146" fill="black">
<rect fill="white" x="0.735992" y="0.191895" width="585" height="146"/>
<path d="M1.73599 76.3279C1.73599 67.6239 3.74133 59.8159 7.75199 52.9039C11.848 45.9919 17.352 40.6159 24.264 36.7759C31.2613 32.8506 38.8987 30.8879 47.176 30.8879C56.648 30.8879 65.0533 33.2346 72.392 37.9279C79.816 42.5359 85.192 49.1066 88.52 57.6399H70.984C68.68 52.9466 65.48 49.4479 61.384 47.1439C57.288 44.8399 52.552 43.6879 47.176 43.6879C41.288 43.6879 36.04 45.0106 31.432 47.6559C26.824 50.3012 23.1973 54.0986 20.552 59.0479C17.992 63.9972 16.712 69.7572 16.712 76.3279C16.712 82.8986 17.992 88.6586 20.552 93.6079C23.1973 98.5572 26.824 102.397 31.432 105.128C36.04 107.773 41.288 109.096 47.176 109.096C52.552 109.096 57.288 107.944 61.384 105.64C65.48 103.336 68.68 99.8372 70.984 95.1439H88.52C85.192 103.677 79.816 110.248 72.392 114.856C65.0533 119.464 56.648 121.768 47.176 121.768C38.8133 121.768 31.176 119.848 24.264 116.008C17.352 112.083 11.848 106.664 7.75199 99.7519C3.74133 92.8399 1.73599 85.0319 1.73599 76.3279Z"/>
<path d="M132.352 122.152C125.696 122.152 119.68 120.659 114.304 117.672C108.928 114.6 104.704 110.333 101.632 104.872C98.56 99.3252 97.024 92.9252 97.024 85.6719C97.024 78.5039 98.6027 72.1466 101.76 66.5999C104.917 61.0532 109.227 56.7866 114.688 53.7999C120.149 50.8132 126.251 49.3199 132.992 49.3199C139.733 49.3199 145.835 50.8132 151.296 53.7999C156.757 56.7866 161.067 61.0532 164.224 66.5999C167.381 72.1466 168.96 78.5039 168.96 85.6719C168.96 92.8399 167.339 99.1972 164.096 104.744C160.853 110.291 156.416 114.6 150.784 117.672C145.237 120.659 139.093 122.152 132.352 122.152ZM132.352 109.48C136.107 109.48 139.605 108.584 142.848 106.792C146.176 105 148.864 102.312 150.912 98.7279C152.96 95.1439 153.984 90.7919 153.984 85.6719C153.984 80.5519 153.003 76.2426 151.04 72.7439C149.077 69.1599 146.475 66.4719 143.232 64.6799C139.989 62.8879 136.491 61.9919 132.736 61.9919C128.981 61.9919 125.483 62.8879 122.24 64.6799C119.083 66.4719 116.565 69.1599 114.688 72.7439C112.811 76.2426 111.872 80.5519 111.872 85.6719C111.872 93.2666 113.792 99.1546 117.632 103.336C121.557 107.432 126.464 109.48 132.352 109.48Z"/>
<path d="M186.073 67.6239C190.169 67.1972 193.284 65.9599 195.417 63.9119C197.636 61.8639 198.745 59.1759 198.745 55.8479C198.745 52.7759 198.404 47.1439 197.721 38.9519C196.953 31.2719 196.569 25.1279 196.569 20.5199C196.569 14.4612 198.318 9.72523 201.817 6.3119C205.401 2.89856 210.094 1.19189 215.897 1.19189H224.473V13.8639H218.841C216.11 13.8639 214.062 14.5039 212.697 15.7839C211.417 16.9786 210.777 18.9412 210.777 21.6719C210.777 23.7199 210.905 26.4506 211.161 29.8639C211.417 33.2772 211.588 35.7092 211.673 37.1599C212.441 45.0106 212.825 51.4106 212.825 56.3599C212.825 60.7119 211.716 64.3386 209.497 67.2399C207.364 70.1412 204.036 72.0612 199.513 72.9999V73.2559C204.036 74.1946 207.364 76.1146 209.497 79.0159C211.716 81.9172 212.825 85.5439 212.825 89.8959C212.825 94.8452 212.441 101.245 211.673 109.096C211.588 110.547 211.417 112.979 211.161 116.392C210.905 119.805 210.777 122.536 210.777 124.584C210.777 127.315 211.417 129.277 212.697 130.472C214.062 131.752 216.11 132.392 218.841 132.392H224.473V145.064H215.897C210.094 145.064 205.401 143.357 201.817 139.944C198.318 136.531 196.569 131.795 196.569 125.736C196.569 121.128 196.953 114.984 197.721 107.304C198.404 99.1119 198.745 93.4799 198.745 90.4079C198.745 87.0799 197.636 84.3919 195.417 82.3439C193.284 80.2959 190.169 79.0586 186.073 78.6319V67.6239Z"/>
<path d="M236.841 85.4159C236.841 78.3332 238.292 72.0612 241.193 66.5999C244.18 61.1386 248.19 56.9146 253.225 53.9279C258.345 50.8559 264.02 49.3199 270.249 49.3199C274.857 49.3199 279.38 50.3439 283.817 52.3919C288.34 54.3546 291.924 56.9999 294.569 60.3279V26.2799H309.289V121H294.569V110.376C292.18 113.789 288.852 116.605 284.585 118.824C280.404 121.043 275.582 122.152 270.121 122.152C263.977 122.152 258.345 120.616 253.225 117.544C248.19 114.387 244.18 110.035 241.193 104.488C238.292 98.8559 236.841 92.4986 236.841 85.4159ZM294.569 85.6719C294.569 80.8079 293.545 76.5839 291.497 72.9999C289.534 69.4159 286.932 66.6852 283.689 64.8079C280.446 62.9306 276.948 61.9919 273.193 61.9919C269.438 61.9919 265.94 62.9306 262.697 64.8079C259.454 66.5999 256.809 69.2879 254.761 72.8719C252.798 76.3706 251.817 80.5519 251.817 85.4159C251.817 90.2799 252.798 94.5466 254.761 98.2159C256.809 101.885 259.454 104.701 262.697 106.664C266.025 108.541 269.524 109.48 273.193 109.48C276.948 109.48 280.446 108.541 283.689 106.664C286.932 104.787 289.534 102.056 291.497 98.4719C293.545 94.8026 294.569 90.5359 294.569 85.6719Z"/>
<path d="M389.255 84.0079C389.255 86.6532 389.084 89.0426 388.743 91.1759H334.855C335.282 96.8079 337.372 101.331 341.127 104.744C344.882 108.157 349.49 109.864 354.951 109.864C362.802 109.864 368.348 106.579 371.591 100.008H387.335C385.202 106.493 381.319 111.827 375.687 116.008C370.14 120.104 363.228 122.152 354.951 122.152C348.21 122.152 342.151 120.659 336.775 117.672C331.484 114.6 327.303 110.333 324.231 104.872C321.244 99.3252 319.751 92.9252 319.751 85.6719C319.751 78.4186 321.202 72.0612 324.103 66.5999C327.09 61.0532 331.228 56.7866 336.519 53.7999C341.895 50.8132 348.039 49.3199 354.951 49.3199C361.607 49.3199 367.538 50.7706 372.743 53.6719C377.948 56.5732 382.002 60.6692 384.903 65.9599C387.804 71.1652 389.255 77.1812 389.255 84.0079ZM374.023 79.3999C373.938 74.0239 372.018 69.7146 368.263 66.4719C364.508 63.2292 359.858 61.6079 354.311 61.6079C349.276 61.6079 344.967 63.2292 341.383 66.4719C337.799 69.6292 335.666 73.9386 334.983 79.3999H374.023Z"/>
<path d="M440.095 78.6319C435.999 79.0586 432.842 80.2959 430.623 82.3439C428.49 84.3919 427.423 87.0799 427.423 90.4079C427.423 93.4799 427.764 99.1119 428.447 107.304C429.215 114.984 429.599 121.128 429.599 125.736C429.599 131.795 427.807 136.531 424.223 139.944C420.724 143.357 416.074 145.064 410.271 145.064H401.695V132.392H407.327C410.058 132.392 412.063 131.752 413.343 130.472C414.708 129.277 415.391 127.315 415.391 124.584C415.391 122.536 415.263 119.805 415.007 116.392C414.751 112.979 414.58 110.547 414.495 109.096C413.727 101.245 413.343 94.8452 413.343 89.8959C413.343 85.5439 414.41 81.9172 416.543 79.0159C418.762 76.1146 422.132 74.1946 426.655 73.2559V72.9999C422.132 72.0612 418.762 70.1412 416.543 67.2399C414.41 64.3386 413.343 60.7119 413.343 56.3599C413.343 51.4106 413.727 45.0106 414.495 37.1599C414.58 35.7092 414.751 33.2772 415.007 29.8639C415.263 26.4506 415.391 23.7199 415.391 21.6719C415.391 18.9412 414.708 16.9786 413.343 15.7839C412.063 14.5039 410.058 13.8639 407.327 13.8639H401.695V1.19189H410.271C416.074 1.19189 420.724 2.89856 424.223 6.3119C427.807 9.72523 429.599 14.4612 429.599 20.5199C429.599 25.1279 429.215 31.2719 428.447 38.9519C427.764 47.1439 427.423 52.7759 427.423 55.8479C427.423 59.1759 428.49 61.8639 430.623 63.9119C432.842 65.9599 435.999 67.1972 440.095 67.6239V78.6319Z"/>
<path d="M489.199 107.944L509.167 50.4719H524.655L497.775 121H480.367L453.615 50.4719H469.231L489.199 107.944Z"/>
<path d="M557.445 122.152C551.898 122.152 546.906 121.171 542.469 119.208C538.117 117.16 534.661 114.429 532.101 111.016C529.541 107.517 528.176 103.635 528.005 99.3679H543.109C543.365 102.355 544.773 104.872 547.333 106.92C549.978 108.883 553.264 109.864 557.189 109.864C561.285 109.864 564.442 109.096 566.661 107.56C568.965 105.939 570.117 103.891 570.117 101.416C570.117 98.7706 568.837 96.8079 566.277 95.5279C563.802 94.2479 559.834 92.8399 554.373 91.3039C549.082 89.8532 544.773 88.4452 541.445 87.0799C538.117 85.7146 535.216 83.6239 532.741 80.8079C530.352 77.9919 529.157 74.2799 529.157 69.6719C529.157 65.9172 530.266 62.5039 532.485 59.4319C534.704 56.2746 537.861 53.7999 541.957 52.0079C546.138 50.2159 550.917 49.3199 556.293 49.3199C564.314 49.3199 570.757 51.3679 575.621 55.4639C580.57 59.4746 583.216 64.9786 583.557 71.9759H568.965C568.709 68.8186 567.429 66.3012 565.125 64.4239C562.821 62.5466 559.706 61.6079 555.781 61.6079C551.941 61.6079 548.997 62.3332 546.949 63.7839C544.901 65.2346 543.877 67.1546 543.877 69.5439C543.877 71.4212 544.56 72.9999 545.925 74.2799C547.29 75.5599 548.954 76.5839 550.917 77.3519C552.88 78.0346 555.781 78.9306 559.621 80.0399C564.741 81.4052 568.922 82.8132 572.165 84.2639C575.493 85.6292 578.352 87.6772 580.741 90.4079C583.13 93.1386 584.368 96.7652 584.453 101.288C584.453 105.299 583.344 108.883 581.125 112.04C578.906 115.197 575.749 117.672 571.653 119.464C567.642 121.256 562.906 122.152 557.445 122.152Z"/>
</mask>
<path d="M1.73599 76.3279C1.73599 67.6239 3.74133 59.8159 7.75199 52.9039C11.848 45.9919 17.352 40.6159 24.264 36.7759C31.2613 32.8506 38.8987 30.8879 47.176 30.8879C56.648 30.8879 65.0533 33.2346 72.392 37.9279C79.816 42.5359 85.192 49.1066 88.52 57.6399H70.984C68.68 52.9466 65.48 49.4479 61.384 47.1439C57.288 44.8399 52.552 43.6879 47.176 43.6879C41.288 43.6879 36.04 45.0106 31.432 47.6559C26.824 50.3012 23.1973 54.0986 20.552 59.0479C17.992 63.9972 16.712 69.7572 16.712 76.3279C16.712 82.8986 17.992 88.6586 20.552 93.6079C23.1973 98.5572 26.824 102.397 31.432 105.128C36.04 107.773 41.288 109.096 47.176 109.096C52.552 109.096 57.288 107.944 61.384 105.64C65.48 103.336 68.68 99.8372 70.984 95.1439H88.52C85.192 103.677 79.816 110.248 72.392 114.856C65.0533 119.464 56.648 121.768 47.176 121.768C38.8133 121.768 31.176 119.848 24.264 116.008C17.352 112.083 11.848 106.664 7.75199 99.7519C3.74133 92.8399 1.73599 85.0319 1.73599 76.3279Z" fill="url(#paint0_linear_8_3)"/>
<path d="M132.352 122.152C125.696 122.152 119.68 120.659 114.304 117.672C108.928 114.6 104.704 110.333 101.632 104.872C98.56 99.3252 97.024 92.9252 97.024 85.6719C97.024 78.5039 98.6027 72.1466 101.76 66.5999C104.917 61.0532 109.227 56.7866 114.688 53.7999C120.149 50.8132 126.251 49.3199 132.992 49.3199C139.733 49.3199 145.835 50.8132 151.296 53.7999C156.757 56.7866 161.067 61.0532 164.224 66.5999C167.381 72.1466 168.96 78.5039 168.96 85.6719C168.96 92.8399 167.339 99.1972 164.096 104.744C160.853 110.291 156.416 114.6 150.784 117.672C145.237 120.659 139.093 122.152 132.352 122.152ZM132.352 109.48C136.107 109.48 139.605 108.584 142.848 106.792C146.176 105 148.864 102.312 150.912 98.7279C152.96 95.1439 153.984 90.7919 153.984 85.6719C153.984 80.5519 153.003 76.2426 151.04 72.7439C149.077 69.1599 146.475 66.4719 143.232 64.6799C139.989 62.8879 136.491 61.9919 132.736 61.9919C128.981 61.9919 125.483 62.8879 122.24 64.6799C119.083 66.4719 116.565 69.1599 114.688 72.7439C112.811 76.2426 111.872 80.5519 111.872 85.6719C111.872 93.2666 113.792 99.1546 117.632 103.336C121.557 107.432 126.464 109.48 132.352 109.48Z" fill="url(#paint1_linear_8_3)"/>
<path d="M186.073 67.6239C190.169 67.1972 193.284 65.9599 195.417 63.9119C197.636 61.8639 198.745 59.1759 198.745 55.8479C198.745 52.7759 198.404 47.1439 197.721 38.9519C196.953 31.2719 196.569 25.1279 196.569 20.5199C196.569 14.4612 198.318 9.72523 201.817 6.3119C205.401 2.89856 210.094 1.19189 215.897 1.19189H224.473V13.8639H218.841C216.11 13.8639 214.062 14.5039 212.697 15.7839C211.417 16.9786 210.777 18.9412 210.777 21.6719C210.777 23.7199 210.905 26.4506 211.161 29.8639C211.417 33.2772 211.588 35.7092 211.673 37.1599C212.441 45.0106 212.825 51.4106 212.825 56.3599C212.825 60.7119 211.716 64.3386 209.497 67.2399C207.364 70.1412 204.036 72.0612 199.513 72.9999V73.2559C204.036 74.1946 207.364 76.1146 209.497 79.0159C211.716 81.9172 212.825 85.5439 212.825 89.8959C212.825 94.8452 212.441 101.245 211.673 109.096C211.588 110.547 211.417 112.979 211.161 116.392C210.905 119.805 210.777 122.536 210.777 124.584C210.777 127.315 211.417 129.277 212.697 130.472C214.062 131.752 216.11 132.392 218.841 132.392H224.473V145.064H215.897C210.094 145.064 205.401 143.357 201.817 139.944C198.318 136.531 196.569 131.795 196.569 125.736C196.569 121.128 196.953 114.984 197.721 107.304C198.404 99.1119 198.745 93.4799 198.745 90.4079C198.745 87.0799 197.636 84.3919 195.417 82.3439C193.284 80.2959 190.169 79.0586 186.073 78.6319V67.6239Z" fill="url(#paint2_linear_8_3)"/>
<path d="M236.841 85.4159C236.841 78.3332 238.292 72.0612 241.193 66.5999C244.18 61.1386 248.19 56.9146 253.225 53.9279C258.345 50.8559 264.02 49.3199 270.249 49.3199C274.857 49.3199 279.38 50.3439 283.817 52.3919C288.34 54.3546 291.924 56.9999 294.569 60.3279V26.2799H309.289V121H294.569V110.376C292.18 113.789 288.852 116.605 284.585 118.824C280.404 121.043 275.582 122.152 270.121 122.152C263.977 122.152 258.345 120.616 253.225 117.544C248.19 114.387 244.18 110.035 241.193 104.488C238.292 98.8559 236.841 92.4986 236.841 85.4159ZM294.569 85.6719C294.569 80.8079 293.545 76.5839 291.497 72.9999C289.534 69.4159 286.932 66.6852 283.689 64.8079C280.446 62.9306 276.948 61.9919 273.193 61.9919C269.438 61.9919 265.94 62.9306 262.697 64.8079C259.454 66.5999 256.809 69.2879 254.761 72.8719C252.798 76.3706 251.817 80.5519 251.817 85.4159C251.817 90.2799 252.798 94.5466 254.761 98.2159C256.809 101.885 259.454 104.701 262.697 106.664C266.025 108.541 269.524 109.48 273.193 109.48C276.948 109.48 280.446 108.541 283.689 106.664C286.932 104.787 289.534 102.056 291.497 98.4719C293.545 94.8026 294.569 90.5359 294.569 85.6719Z" fill="url(#paint3_linear_8_3)"/>
<path d="M389.255 84.0079C389.255 86.6532 389.084 89.0426 388.743 91.1759H334.855C335.282 96.8079 337.372 101.331 341.127 104.744C344.882 108.157 349.49 109.864 354.951 109.864C362.802 109.864 368.348 106.579 371.591 100.008H387.335C385.202 106.493 381.319 111.827 375.687 116.008C370.14 120.104 363.228 122.152 354.951 122.152C348.21 122.152 342.151 120.659 336.775 117.672C331.484 114.6 327.303 110.333 324.231 104.872C321.244 99.3252 319.751 92.9252 319.751 85.6719C319.751 78.4186 321.202 72.0612 324.103 66.5999C327.09 61.0532 331.228 56.7866 336.519 53.7999C341.895 50.8132 348.039 49.3199 354.951 49.3199C361.607 49.3199 367.538 50.7706 372.743 53.6719C377.948 56.5732 382.002 60.6692 384.903 65.9599C387.804 71.1652 389.255 77.1812 389.255 84.0079ZM374.023 79.3999C373.938 74.0239 372.018 69.7146 368.263 66.4719C364.508 63.2292 359.858 61.6079 354.311 61.6079C349.276 61.6079 344.967 63.2292 341.383 66.4719C337.799 69.6292 335.666 73.9386 334.983 79.3999H374.023Z" fill="url(#paint4_linear_8_3)"/>
<path d="M440.095 78.6319C435.999 79.0586 432.842 80.2959 430.623 82.3439C428.49 84.3919 427.423 87.0799 427.423 90.4079C427.423 93.4799 427.764 99.1119 428.447 107.304C429.215 114.984 429.599 121.128 429.599 125.736C429.599 131.795 427.807 136.531 424.223 139.944C420.724 143.357 416.074 145.064 410.271 145.064H401.695V132.392H407.327C410.058 132.392 412.063 131.752 413.343 130.472C414.708 129.277 415.391 127.315 415.391 124.584C415.391 122.536 415.263 119.805 415.007 116.392C414.751 112.979 414.58 110.547 414.495 109.096C413.727 101.245 413.343 94.8452 413.343 89.8959C413.343 85.5439 414.41 81.9172 416.543 79.0159C418.762 76.1146 422.132 74.1946 426.655 73.2559V72.9999C422.132 72.0612 418.762 70.1412 416.543 67.2399C414.41 64.3386 413.343 60.7119 413.343 56.3599C413.343 51.4106 413.727 45.0106 414.495 37.1599C414.58 35.7092 414.751 33.2772 415.007 29.8639C415.263 26.4506 415.391 23.7199 415.391 21.6719C415.391 18.9412 414.708 16.9786 413.343 15.7839C412.063 14.5039 410.058 13.8639 407.327 13.8639H401.695V1.19189H410.271C416.074 1.19189 420.724 2.89856 424.223 6.3119C427.807 9.72523 429.599 14.4612 429.599 20.5199C429.599 25.1279 429.215 31.2719 428.447 38.9519C427.764 47.1439 427.423 52.7759 427.423 55.8479C427.423 59.1759 428.49 61.8639 430.623 63.9119C432.842 65.9599 435.999 67.1972 440.095 67.6239V78.6319Z" fill="url(#paint5_linear_8_3)"/>
<path d="M489.199 107.944L509.167 50.4719H524.655L497.775 121H480.367L453.615 50.4719H469.231L489.199 107.944Z" fill="url(#paint6_linear_8_3)"/>
<path d="M557.445 122.152C551.898 122.152 546.906 121.171 542.469 119.208C538.117 117.16 534.661 114.429 532.101 111.016C529.541 107.517 528.176 103.635 528.005 99.3679H543.109C543.365 102.355 544.773 104.872 547.333 106.92C549.978 108.883 553.264 109.864 557.189 109.864C561.285 109.864 564.442 109.096 566.661 107.56C568.965 105.939 570.117 103.891 570.117 101.416C570.117 98.7706 568.837 96.8079 566.277 95.5279C563.802 94.2479 559.834 92.8399 554.373 91.3039C549.082 89.8532 544.773 88.4452 541.445 87.0799C538.117 85.7146 535.216 83.6239 532.741 80.8079C530.352 77.9919 529.157 74.2799 529.157 69.6719C529.157 65.9172 530.266 62.5039 532.485 59.4319C534.704 56.2746 537.861 53.7999 541.957 52.0079C546.138 50.2159 550.917 49.3199 556.293 49.3199C564.314 49.3199 570.757 51.3679 575.621 55.4639C580.57 59.4746 583.216 64.9786 583.557 71.9759H568.965C568.709 68.8186 567.429 66.3012 565.125 64.4239C562.821 62.5466 559.706 61.6079 555.781 61.6079C551.941 61.6079 548.997 62.3332 546.949 63.7839C544.901 65.2346 543.877 67.1546 543.877 69.5439C543.877 71.4212 544.56 72.9999 545.925 74.2799C547.29 75.5599 548.954 76.5839 550.917 77.3519C552.88 78.0346 555.781 78.9306 559.621 80.0399C564.741 81.4052 568.922 82.8132 572.165 84.2639C575.493 85.6292 578.352 87.6772 580.741 90.4079C583.13 93.1386 584.368 96.7652 584.453 101.288C584.453 105.299 583.344 108.883 581.125 112.04C578.906 115.197 575.749 117.672 571.653 119.464C567.642 121.256 562.906 122.152 557.445 122.152Z" fill="url(#paint7_linear_8_3)"/>
<path d="M1.73599 76.3279C1.73599 67.6239 3.74133 59.8159 7.75199 52.9039C11.848 45.9919 17.352 40.6159 24.264 36.7759C31.2613 32.8506 38.8987 30.8879 47.176 30.8879C56.648 30.8879 65.0533 33.2346 72.392 37.9279C79.816 42.5359 85.192 49.1066 88.52 57.6399H70.984C68.68 52.9466 65.48 49.4479 61.384 47.1439C57.288 44.8399 52.552 43.6879 47.176 43.6879C41.288 43.6879 36.04 45.0106 31.432 47.6559C26.824 50.3012 23.1973 54.0986 20.552 59.0479C17.992 63.9972 16.712 69.7572 16.712 76.3279C16.712 82.8986 17.992 88.6586 20.552 93.6079C23.1973 98.5572 26.824 102.397 31.432 105.128C36.04 107.773 41.288 109.096 47.176 109.096C52.552 109.096 57.288 107.944 61.384 105.64C65.48 103.336 68.68 99.8372 70.984 95.1439H88.52C85.192 103.677 79.816 110.248 72.392 114.856C65.0533 119.464 56.648 121.768 47.176 121.768C38.8133 121.768 31.176 119.848 24.264 116.008C17.352 112.083 11.848 106.664 7.75199 99.7519C3.74133 92.8399 1.73599 85.0319 1.73599 76.3279Z" stroke="url(#paint8_linear_8_3)" stroke-width="2" mask="url(#path-1-outside-1_8_3)"/>
<path d="M132.352 122.152C125.696 122.152 119.68 120.659 114.304 117.672C108.928 114.6 104.704 110.333 101.632 104.872C98.56 99.3252 97.024 92.9252 97.024 85.6719C97.024 78.5039 98.6027 72.1466 101.76 66.5999C104.917 61.0532 109.227 56.7866 114.688 53.7999C120.149 50.8132 126.251 49.3199 132.992 49.3199C139.733 49.3199 145.835 50.8132 151.296 53.7999C156.757 56.7866 161.067 61.0532 164.224 66.5999C167.381 72.1466 168.96 78.5039 168.96 85.6719C168.96 92.8399 167.339 99.1972 164.096 104.744C160.853 110.291 156.416 114.6 150.784 117.672C145.237 120.659 139.093 122.152 132.352 122.152ZM132.352 109.48C136.107 109.48 139.605 108.584 142.848 106.792C146.176 105 148.864 102.312 150.912 98.7279C152.96 95.1439 153.984 90.7919 153.984 85.6719C153.984 80.5519 153.003 76.2426 151.04 72.7439C149.077 69.1599 146.475 66.4719 143.232 64.6799C139.989 62.8879 136.491 61.9919 132.736 61.9919C128.981 61.9919 125.483 62.8879 122.24 64.6799C119.083 66.4719 116.565 69.1599 114.688 72.7439C112.811 76.2426 111.872 80.5519 111.872 85.6719C111.872 93.2666 113.792 99.1546 117.632 103.336C121.557 107.432 126.464 109.48 132.352 109.48Z" stroke="url(#paint9_linear_8_3)" stroke-width="2" mask="url(#path-1-outside-1_8_3)"/>
<path d="M186.073 67.6239C190.169 67.1972 193.284 65.9599 195.417 63.9119C197.636 61.8639 198.745 59.1759 198.745 55.8479C198.745 52.7759 198.404 47.1439 197.721 38.9519C196.953 31.2719 196.569 25.1279 196.569 20.5199C196.569 14.4612 198.318 9.72523 201.817 6.3119C205.401 2.89856 210.094 1.19189 215.897 1.19189H224.473V13.8639H218.841C216.11 13.8639 214.062 14.5039 212.697 15.7839C211.417 16.9786 210.777 18.9412 210.777 21.6719C210.777 23.7199 210.905 26.4506 211.161 29.8639C211.417 33.2772 211.588 35.7092 211.673 37.1599C212.441 45.0106 212.825 51.4106 212.825 56.3599C212.825 60.7119 211.716 64.3386 209.497 67.2399C207.364 70.1412 204.036 72.0612 199.513 72.9999V73.2559C204.036 74.1946 207.364 76.1146 209.497 79.0159C211.716 81.9172 212.825 85.5439 212.825 89.8959C212.825 94.8452 212.441 101.245 211.673 109.096C211.588 110.547 211.417 112.979 211.161 116.392C210.905 119.805 210.777 122.536 210.777 124.584C210.777 127.315 211.417 129.277 212.697 130.472C214.062 131.752 216.11 132.392 218.841 132.392H224.473V145.064H215.897C210.094 145.064 205.401 143.357 201.817 139.944C198.318 136.531 196.569 131.795 196.569 125.736C196.569 121.128 196.953 114.984 197.721 107.304C198.404 99.1119 198.745 93.4799 198.745 90.4079C198.745 87.0799 197.636 84.3919 195.417 82.3439C193.284 80.2959 190.169 79.0586 186.073 78.6319V67.6239Z" stroke="url(#paint10_linear_8_3)" stroke-width="2" mask="url(#path-1-outside-1_8_3)"/>
<path d="M236.841 85.4159C236.841 78.3332 238.292 72.0612 241.193 66.5999C244.18 61.1386 248.19 56.9146 253.225 53.9279C258.345 50.8559 264.02 49.3199 270.249 49.3199C274.857 49.3199 279.38 50.3439 283.817 52.3919C288.34 54.3546 291.924 56.9999 294.569 60.3279V26.2799H309.289V121H294.569V110.376C292.18 113.789 288.852 116.605 284.585 118.824C280.404 121.043 275.582 122.152 270.121 122.152C263.977 122.152 258.345 120.616 253.225 117.544C248.19 114.387 244.18 110.035 241.193 104.488C238.292 98.8559 236.841 92.4986 236.841 85.4159ZM294.569 85.6719C294.569 80.8079 293.545 76.5839 291.497 72.9999C289.534 69.4159 286.932 66.6852 283.689 64.8079C280.446 62.9306 276.948 61.9919 273.193 61.9919C269.438 61.9919 265.94 62.9306 262.697 64.8079C259.454 66.5999 256.809 69.2879 254.761 72.8719C252.798 76.3706 251.817 80.5519 251.817 85.4159C251.817 90.2799 252.798 94.5466 254.761 98.2159C256.809 101.885 259.454 104.701 262.697 106.664C266.025 108.541 269.524 109.48 273.193 109.48C276.948 109.48 280.446 108.541 283.689 106.664C286.932 104.787 289.534 102.056 291.497 98.4719C293.545 94.8026 294.569 90.5359 294.569 85.6719Z" stroke="url(#paint11_linear_8_3)" stroke-width="2" mask="url(#path-1-outside-1_8_3)"/>
<path d="M389.255 84.0079C389.255 86.6532 389.084 89.0426 388.743 91.1759H334.855C335.282 96.8079 337.372 101.331 341.127 104.744C344.882 108.157 349.49 109.864 354.951 109.864C362.802 109.864 368.348 106.579 371.591 100.008H387.335C385.202 106.493 381.319 111.827 375.687 116.008C370.14 120.104 363.228 122.152 354.951 122.152C348.21 122.152 342.151 120.659 336.775 117.672C331.484 114.6 327.303 110.333 324.231 104.872C321.244 99.3252 319.751 92.9252 319.751 85.6719C319.751 78.4186 321.202 72.0612 324.103 66.5999C327.09 61.0532 331.228 56.7866 336.519 53.7999C341.895 50.8132 348.039 49.3199 354.951 49.3199C361.607 49.3199 367.538 50.7706 372.743 53.6719C377.948 56.5732 382.002 60.6692 384.903 65.9599C387.804 71.1652 389.255 77.1812 389.255 84.0079ZM374.023 79.3999C373.938 74.0239 372.018 69.7146 368.263 66.4719C364.508 63.2292 359.858 61.6079 354.311 61.6079C349.276 61.6079 344.967 63.2292 341.383 66.4719C337.799 69.6292 335.666 73.9386 334.983 79.3999H374.023Z" stroke="url(#paint12_linear_8_3)" stroke-width="2" mask="url(#path-1-outside-1_8_3)"/>
<path d="M440.095 78.6319C435.999 79.0586 432.842 80.2959 430.623 82.3439C428.49 84.3919 427.423 87.0799 427.423 90.4079C427.423 93.4799 427.764 99.1119 428.447 107.304C429.215 114.984 429.599 121.128 429.599 125.736C429.599 131.795 427.807 136.531 424.223 139.944C420.724 143.357 416.074 145.064 410.271 145.064H401.695V132.392H407.327C410.058 132.392 412.063 131.752 413.343 130.472C414.708 129.277 415.391 127.315 415.391 124.584C415.391 122.536 415.263 119.805 415.007 116.392C414.751 112.979 414.58 110.547 414.495 109.096C413.727 101.245 413.343 94.8452 413.343 89.8959C413.343 85.5439 414.41 81.9172 416.543 79.0159C418.762 76.1146 422.132 74.1946 426.655 73.2559V72.9999C422.132 72.0612 418.762 70.1412 416.543 67.2399C414.41 64.3386 413.343 60.7119 413.343 56.3599C413.343 51.4106 413.727 45.0106 414.495 37.1599C414.58 35.7092 414.751 33.2772 415.007 29.8639C415.263 26.4506 415.391 23.7199 415.391 21.6719C415.391 18.9412 414.708 16.9786 413.343 15.7839C412.063 14.5039 410.058 13.8639 407.327 13.8639H401.695V1.19189H410.271C416.074 1.19189 420.724 2.89856 424.223 6.3119C427.807 9.72523 429.599 14.4612 429.599 20.5199C429.599 25.1279 429.215 31.2719 428.447 38.9519C427.764 47.1439 427.423 52.7759 427.423 55.8479C427.423 59.1759 428.49 61.8639 430.623 63.9119C432.842 65.9599 435.999 67.1972 440.095 67.6239V78.6319Z" stroke="url(#paint13_linear_8_3)" stroke-width="2" mask="url(#path-1-outside-1_8_3)"/>
<path d="M489.199 107.944L509.167 50.4719H524.655L497.775 121H480.367L453.615 50.4719H469.231L489.199 107.944Z" stroke="url(#paint14_linear_8_3)" stroke-width="2" mask="url(#path-1-outside-1_8_3)"/>
<path d="M557.445 122.152C551.898 122.152 546.906 121.171 542.469 119.208C538.117 117.16 534.661 114.429 532.101 111.016C529.541 107.517 528.176 103.635 528.005 99.3679H543.109C543.365 102.355 544.773 104.872 547.333 106.92C549.978 108.883 553.264 109.864 557.189 109.864C561.285 109.864 564.442 109.096 566.661 107.56C568.965 105.939 570.117 103.891 570.117 101.416C570.117 98.7706 568.837 96.8079 566.277 95.5279C563.802 94.2479 559.834 92.8399 554.373 91.3039C549.082 89.8532 544.773 88.4452 541.445 87.0799C538.117 85.7146 535.216 83.6239 532.741 80.8079C530.352 77.9919 529.157 74.2799 529.157 69.6719C529.157 65.9172 530.266 62.5039 532.485 59.4319C534.704 56.2746 537.861 53.7999 541.957 52.0079C546.138 50.2159 550.917 49.3199 556.293 49.3199C564.314 49.3199 570.757 51.3679 575.621 55.4639C580.57 59.4746 583.216 64.9786 583.557 71.9759H568.965C568.709 68.8186 567.429 66.3012 565.125 64.4239C562.821 62.5466 559.706 61.6079 555.781 61.6079C551.941 61.6079 548.997 62.3332 546.949 63.7839C544.901 65.2346 543.877 67.1546 543.877 69.5439C543.877 71.4212 544.56 72.9999 545.925 74.2799C547.29 75.5599 548.954 76.5839 550.917 77.3519C552.88 78.0346 555.781 78.9306 559.621 80.0399C564.741 81.4052 568.922 82.8132 572.165 84.2639C575.493 85.6292 578.352 87.6772 580.741 90.4079C583.13 93.1386 584.368 96.7652 584.453 101.288C584.453 105.299 583.344 108.883 581.125 112.04C578.906 115.197 575.749 117.672 571.653 119.464C567.642 121.256 562.906 122.152 557.445 122.152Z" stroke="url(#paint15_linear_8_3)" stroke-width="2" mask="url(#path-1-outside-1_8_3)"/>
<defs>
<linearGradient id="paint0_linear_8_3" x1="-3" y1="76" x2="591" y2="76" gradientUnits="userSpaceOnUse">
<stop offset="0.273282" stop-color="#2CB0FF"/>
<stop offset="0.481881" stop-color="#5A4CE7"/>
<stop offset="0.732592" stop-color="#7142E0"/>
</linearGradient>
<linearGradient id="paint1_linear_8_3" x1="-3" y1="76" x2="591" y2="76" gradientUnits="userSpaceOnUse">
<stop offset="0.273282" stop-color="#2CB0FF"/>
<stop offset="0.481881" stop-color="#5A4CE7"/>
<stop offset="0.732592" stop-color="#7142E0"/>
</linearGradient>
<linearGradient id="paint2_linear_8_3" x1="-3" y1="76" x2="591" y2="76" gradientUnits="userSpaceOnUse">
<stop offset="0.273282" stop-color="#2CB0FF"/>
<stop offset="0.481881" stop-color="#5A4CE7"/>
<stop offset="0.732592" stop-color="#7142E0"/>
</linearGradient>
<linearGradient id="paint3_linear_8_3" x1="-3" y1="76" x2="591" y2="76" gradientUnits="userSpaceOnUse">
<stop offset="0.273282" stop-color="#2CB0FF"/>
<stop offset="0.481881" stop-color="#5A4CE7"/>
<stop offset="0.732592" stop-color="#7142E0"/>
</linearGradient>
<linearGradient id="paint4_linear_8_3" x1="-3" y1="76" x2="591" y2="76" gradientUnits="userSpaceOnUse">
<stop offset="0.273282" stop-color="#2CB0FF"/>
<stop offset="0.481881" stop-color="#5A4CE7"/>
<stop offset="0.732592" stop-color="#7142E0"/>
</linearGradient>
<linearGradient id="paint5_linear_8_3" x1="-3" y1="76" x2="591" y2="76" gradientUnits="userSpaceOnUse">
<stop offset="0.273282" stop-color="#2CB0FF"/>
<stop offset="0.481881" stop-color="#5A4CE7"/>
<stop offset="0.732592" stop-color="#7142E0"/>
</linearGradient>
<linearGradient id="paint6_linear_8_3" x1="-3" y1="76" x2="591" y2="76" gradientUnits="userSpaceOnUse">
<stop offset="0.273282" stop-color="#2CB0FF"/>
<stop offset="0.481881" stop-color="#5A4CE7"/>
<stop offset="0.732592" stop-color="#7142E0"/>
</linearGradient>
<linearGradient id="paint7_linear_8_3" x1="-3" y1="76" x2="591" y2="76" gradientUnits="userSpaceOnUse">
<stop offset="0.273282" stop-color="#2CB0FF"/>
<stop offset="0.481881" stop-color="#5A4CE7"/>
<stop offset="0.732592" stop-color="#7142E0"/>
</linearGradient>
<linearGradient id="paint8_linear_8_3" x1="-3" y1="76" x2="591" y2="76" gradientUnits="userSpaceOnUse">
<stop stop-color="#1F84C0"/>
<stop offset="1" stop-color="#5832B3"/>
</linearGradient>
<linearGradient id="paint9_linear_8_3" x1="-3" y1="76" x2="591" y2="76" gradientUnits="userSpaceOnUse">
<stop stop-color="#1F84C0"/>
<stop offset="1" stop-color="#5832B3"/>
</linearGradient>
<linearGradient id="paint10_linear_8_3" x1="-3" y1="76" x2="591" y2="76" gradientUnits="userSpaceOnUse">
<stop stop-color="#1F84C0"/>
<stop offset="1" stop-color="#5832B3"/>
</linearGradient>
<linearGradient id="paint11_linear_8_3" x1="-3" y1="76" x2="591" y2="76" gradientUnits="userSpaceOnUse">
<stop stop-color="#1F84C0"/>
<stop offset="1" stop-color="#5832B3"/>
</linearGradient>
<linearGradient id="paint12_linear_8_3" x1="-3" y1="76" x2="591" y2="76" gradientUnits="userSpaceOnUse">
<stop stop-color="#1F84C0"/>
<stop offset="1" stop-color="#5832B3"/>
</linearGradient>
<linearGradient id="paint13_linear_8_3" x1="-3" y1="76" x2="591" y2="76" gradientUnits="userSpaceOnUse">
<stop stop-color="#1F84C0"/>
<stop offset="1" stop-color="#5832B3"/>
</linearGradient>
<linearGradient id="paint14_linear_8_3" x1="-3" y1="76" x2="591" y2="76" gradientUnits="userSpaceOnUse">
<stop stop-color="#1F84C0"/>
<stop offset="1" stop-color="#5832B3"/>
</linearGradient>
<linearGradient id="paint15_linear_8_3" x1="-3" y1="76" x2="591" y2="76" gradientUnits="userSpaceOnUse">
<stop stop-color="#1F84C0"/>
<stop offset="1" stop-color="#5832B3"/>
</linearGradient>
</defs>
</svg>
